<svg id="Layer_1" data-name="Layer 1" xmlns="http://www.w3.org/2000/svg" viewBox="0 0 16 16"><defs><style>.cls-1{fill:#f5f5f5;}</style></defs><path class="cls-1" d="M8,0l6.61,3h.89a.5.5,0,0,1,.5.5v2a.5.5,0,0,1-.5.5H15v7a.49.49,0,0,1,.48.38l.5,2a.48.48,0,0,1-.36.6.25.25,0,0,1-.12,0H.5a.5.5,0,0,1-.5-.5.49.49,0,0,1,0-.12l.5-2A.51.51,0,0,1,1,13V6H.5A.5.5,0,0,1,0,5.5v-2A.5.5,0,0,1,.5,3h.89ZM3.78,3h8.44L8,1ZM2,6v7H3V6ZM4,6v7H6.5V6ZM7.5,6v7h1V6Zm2,0v7H12V6ZM13,6v7h1V6Zm2-1V4H1V5Zm-.39,9H1.39l-.25,1H14.86Z" transform="translate(0)"/></svg>