<svg id="Layer_1" data-name="Layer 1" xmlns="http://www.w3.org/2000/svg" viewBox="0 0 12 16"><defs><style>.cls-1{fill:#f5f5f5;}</style></defs><path class="cls-1" d="M12.17,8.94a20.2,20.2,0,0,1-2,3.07A31.83,31.83,0,0,1,8,14.58,31.83,31.83,0,0,1,5.79,12a20.2,20.2,0,0,1-2-3.07A6.9,6.9,0,0,1,3,6,5,5,0,0,1,13,6,7.05,7.05,0,0,1,12.17,8.94ZM8,16s6-5.69,6-10A6,6,0,0,0,2,6C2,10.31,8,16,8,16Z" transform="translate(-2)"/><path class="cls-1" d="M8,8a2,2,0,1,1,2-2A2,2,0,0,1,8,8ZM8,9A3,3,0,1,0,5,6,3,3,0,0,0,8,9Z" transform="translate(-2)"/></svg>