<svg width="45" height="45" viewBox="0 0 45 45" fill="none" xmlns="http://www.w3.org/2000/svg">
<g clip-path="url(#clip0_14_734)">
<path d="M31.875 18.75H13.125V22.5H31.875V18.75ZM35.625 5.625H33.75V1.875H30V5.625H15V1.875H11.25V5.625H9.375C7.29375 5.625 5.64375 7.3125 5.64375 9.375L5.625 35.625C5.625 37.6875 7.29375 39.375 9.375 39.375H35.625C37.6875 39.375 39.375 37.6875 39.375 35.625V9.375C39.375 7.3125 37.6875 5.625 35.625 5.625ZM35.625 35.625H9.375V15H35.625V35.625ZM26.25 26.25H13.125V30H26.25V26.25Z" fill="black"/>
</g>
<defs>
<clipPath id="clip0_14_734">
<rect width="45" height="45" fill="white"/>
</clipPath>
</defs>
</svg>
